<?xml version="1.0" encoding="utf-8"?>
<svg viewBox="0 0 500 500" xmlns="http://www.w3.org/2000/svg">
  <g transform="matrix(1, 0, 0, 1, 127.102737, 75.107277)">
    <path style="stroke: rgb(255, 255, 255); paint-order: stroke; fill: rgb(255, 255, 255);" d="M 76.988 235.517 C 84.886 235.517 91.298 229.485 91.298 222.034 C 91.298 214.593 91.298 208.561 91.298 208.561 C 130.367 204.982 156.23 184.346 156.23 150.776 L 156.23 150.227 C 150.123 125.031 133.03 101.623 90.472 90.25 L 90.472 58.334 C 96.77 59.873 103.292 62.054 109.666 64.883 C 119.924 69.43 132.39 66.58 138.618 56.398 C 144.851 46.222 141.484 31.928 129.937 26.744 C 118.439 21.588 105.82 18.036 91.842 16.508 L 91.842 8.251 C 91.842 3.699 85.44 0 77.537 0 C 69.634 0 63.227 3.514 63.227 7.832 C 63.227 12.167 63.227 15.675 63.227 15.675 C 21.123 18.705 -2.537 41.266 -2.537 73.732 L -2.537 74.287 C -2.537 108.401 20.024 123.543 64.325 133.714 L 64.325 166.735 C 53.697 165.022 43.292 161.492 32.702 156.085 C 21.421 150.33 7.601 152.365 0.764 162.47 C -6.078 172.57 -3.315 186.919 8.058 192.499 C 24.767 200.707 43.651 206.069 62.672 208.017 L 62.672 221.772 C 62.678 229.36 69.085 235.517 76.988 235.517 Z M 90.189 138.12 C 104.505 142.243 108.627 146.377 108.627 153.801 L 108.627 154.356 C 108.627 162.335 102.851 167.007 90.189 168.389 L 90.189 138.12 Z M 45.887 70.153 L 45.887 69.604 C 45.887 62.452 51.119 56.947 64.597 55.849 L 64.597 85.568 C 49.744 81.439 45.887 77.305 45.887 70.153 Z"/>
  </g>
  <g transform="matrix(1, 0, 0, 1, 127.102737, 75.107277)"/>
  <g transform="matrix(1, 0, 0, 1, 127.102737, 75.107277)"/>
  <g transform="matrix(1, 0, 0, 1, 127.102737, 75.107277)"/>
  <g transform="matrix(1, 0, 0, 1, 127.102737, 75.107277)"/>
  <g transform="matrix(1, 0, 0, 1, 127.102737, 75.107277)"/>
  <g transform="matrix(1, 0, 0, 1, 127.102737, 75.107277)"/>
  <g transform="matrix(1, 0, 0, 1, 127.102737, 75.107277)"/>
  <g transform="matrix(1, 0, 0, 1, 127.102737, 75.107277)"/>
  <g transform="matrix(1, 0, 0, 1, 127.102737, 75.107277)"/>
  <g transform="matrix(1, 0, 0, 1, 127.102737, 75.107277)"/>
  <g transform="matrix(1, 0, 0, 1, 127.102737, 75.107277)"/>
  <g transform="matrix(1, 0, 0, 1, 127.102737, 75.107277)"/>
  <g transform="matrix(1, 0, 0, 1, 127.102737, 75.107277)"/>
  <g transform="matrix(1, 0, 0, 1, 127.102737, 75.107277)"/>
  <g transform="matrix(1, 0, 0, 1, 127.102737, 75.107277)"/>
</svg>